<?xml version="1.0" encoding="UTF-8"?><svg id="Layer_1" xmlns="http://www.w3.org/2000/svg" viewBox="0 0 88 88"><defs><style>.cls-1{fill:#e3fa55;}.cls-1,.cls-2,.cls-3{stroke-width:0px;}.cls-2{fill:#000;}.cls-3{fill:#fefefe;}</style></defs><path class="cls-2" d="M44.45,82.95c-4.15,0-8.3,0-12.45,0-13.47,0-25.67-11.66-26.01-25.13-.22-8.75-.21-17.51-.04-26.26.26-13.82,12.14-25.69,26.06-26.02,8.3-.19,16.61-.17,24.91,0,13.68.28,25.44,11.55,26.08,25.24.43,9.34.46,18.72-.05,28.06-.7,12.95-12.81,24.11-25.81,24.11-4.23,0-8.45,0-12.68,0Z"/><path class="cls-3" d="M38.26,38.71c2.71-3.49,6.14-4.06,9.81-2.69,3.53,1.31,4.67,4.45,5.06,7.92.56,5.04.5,9.89-3.13,14.06-2.28,2.61-8.35,2.71-10.45-.03-.54-.71-1.09-1.41-1.67-2.16-.2.19-.38.31-.5.47-.71,1.01-.08,3.02-1.53,3.23-2.36.35-4.82.2-7.22.04-.9-.06-.39-1.13-.48-1.73-.11-.7.13-1.11.96-1.14,2.23-.07,2.64-1.54,2.63-3.41-.03-7.01-.04-14.03,0-21.04.01-1.98-.45-3.49-2.74-3.57-1.15-.04-.8-.8-.88-1.41-.12-.93.46-.92,1.11-.92,2.56.01,5.13.07,7.69-.02,1.17-.04,1.36.42,1.34,1.44-.05,3.54-.02,7.07-.02,10.96Z"/><path class="cls-1" d="M58.42,56.75c-.03-2.62,2.18-4.94,4.79-5.02,2.1-.07,3.93,1.73,3.91,3.83-.04,2.88-2.16,5.17-4.83,5.24-2.26.05-3.84-1.6-3.87-4.04Z"/><path class="cls-2" d="M38.28,47.33c.18-2.14.12-4.11.77-5.99.58-1.67,1.76-2.61,3.53-2.65,1.73-.04,2.86.94,3.33,2.52,1.27,4.29,1.24,8.6-.13,12.86-.44,1.39-1.46,2.21-3.03,2.23-1.71.02-2.88-.74-3.53-2.28-.93-2.21-.76-4.57-.94-6.69Z"/></svg>