<svg width="30" height="30" viewBox="0 0 30 30" fill="none" xmlns="http://www.w3.org/2000/svg">
<path fill-rule="evenodd" clip-rule="evenodd" d="M8.92875 3H21.0713C22.643 3.00208 24.1498 3.62739 25.2612 4.73879C26.3726 5.8502 26.9979 7.35699 27 8.92875V21.0713C26.9979 22.643 26.3726 24.1498 25.2612 25.2612C24.1498 26.3726 22.643 26.9979 21.0713 27H8.92875C7.3568 26.9985 5.84967 26.3734 4.73813 25.2619C3.6266 24.1503 3.00149 22.6432 3 21.0713V8.92875C3.00149 7.35681 3.6266 5.84967 4.73813 4.73814C5.84967 3.6266 7.3568 3.00149 8.92875 3ZM9.76476 9.11982C12.2392 8.96006 17.7616 8.96006 20.2352 9.11982C22.9199 9.29757 23.2299 10.8741 23.25 15C23.2299 19.1334 22.9199 20.7039 20.2352 20.8802C17.757 21.0399 12.2384 21.0399 9.76476 20.8802C7.08008 20.7002 6.7701 19.1251 6.75 15C6.7701 10.8666 7.08008 9.29757 9.76476 9.11982ZM18.4333 15L12.9341 12.3314V17.6686L18.4333 15Z" fill="#303AAE"/>
</svg>
