<svg width="30" height="30" viewBox="0 0 30 30" fill="none" xmlns="http://www.w3.org/2000/svg">
<path fill-rule="evenodd" clip-rule="evenodd" d="M3.65396 6.27606C3 7.55953 3 9.23969 3 12.6V17.4C3 20.7603 3 22.4405 3.65396 23.7239C4.2292 24.8529 5.14708 25.7708 6.27606 26.346C7.55953 27 9.23969 27 12.6 27H17.4C20.7603 27 22.4405 27 23.7239 26.346C24.8529 25.7708 25.7708 24.8529 26.346 23.7239C27 22.4405 27 20.7603 27 17.4V12.6C27 9.23969 27 7.55953 26.346 6.27606C25.7708 5.14708 24.8529 4.2292 23.7239 3.65396C22.4405 3 20.7603 3 17.4 3H12.6C9.23969 3 7.55953 3 6.27606 3.65396C5.14708 4.2292 4.2292 5.14708 3.65396 6.27606ZM8.99854 11.9972H11.3978V20.9945H8.99854V11.9972ZM10.191 10.7976H10.1778C9.4616 10.7976 8.99854 10.2638 8.99854 9.59736C8.99854 8.91656 9.47599 8.39832 10.2048 8.39832C10.9348 8.39832 11.384 8.91656 11.3978 9.59736C11.3978 10.2638 10.9348 10.7976 10.191 10.7976ZM21.5948 15.2962C21.5948 13.474 20.118 11.9972 18.2957 11.9972C17.1789 11.9972 16.1934 12.5539 15.5966 13.4032V11.9972H13.1973V20.9945H15.5966V16.196C15.5966 15.2021 16.4021 14.3965 17.396 14.3965C18.3899 14.3965 19.1955 15.2021 19.1955 16.196V20.9945H21.5948V15.2962Z" fill="#303AAE"/>
</svg>
