<svg width="30" height="30" viewBox="0 0 30 30" fill="none" xmlns="http://www.w3.org/2000/svg">
<path d="M3.65396 6.27606C3 7.55953 3 9.23969 3 12.6V17.4C3 20.7603 3 22.4405 3.65396 23.7239C4.2292 24.8529 5.14708 25.7708 6.27606 26.346C7.55953 27 9.23969 27 12.6 27H13.1719V18.4687H10.125V14.9397H13.1719V12.2499C13.1719 9.19014 14.9634 7.5 17.7045 7.5C19.0174 7.5 20.3906 7.73844 20.3906 7.73844V10.7429H18.8774C17.3868 10.7429 16.9219 11.684 16.9219 12.6495V14.9397H20.2501L19.718 18.4687H16.9219V27H17.4C20.7603 27 22.4405 27 23.7239 26.346C24.8529 25.7708 25.7708 24.8529 26.346 23.7239C27 22.4405 27 20.7603 27 17.4V12.6C27 9.23969 27 7.55953 26.346 6.27606C25.7708 5.14708 24.8529 4.2292 23.7239 3.65396C22.4405 3 20.7603 3 17.4 3H12.6C9.23969 3 7.55953 3 6.27606 3.65396C5.14708 4.2292 4.2292 5.14708 3.65396 6.27606Z" fill="#303AAE"/>
</svg>
