<svg width="30" height="30" viewBox="0 0 30 30" fill="none" xmlns="http://www.w3.org/2000/svg">
<path d="M21.0713 3H8.92875C7.35681 3.00149 5.84967 3.6266 4.73814 4.73814C3.6266 5.84967 3.00149 7.35681 3 8.92875V21.0713C3.00149 22.6432 3.6266 24.1503 4.73814 25.2619C5.84967 26.3734 7.35681 26.9985 8.92875 27H21.0713C22.643 26.9979 24.1498 26.3726 25.2612 25.2612C26.3726 24.1498 26.9979 22.643 27 21.0713V8.92875C26.9979 7.35699 26.3726 5.8502 25.2612 4.73879C24.1498 3.62739 22.643 3.00208 21.0713 3ZM20.9475 10.575C20.646 10.5746 20.3514 10.4849 20.1009 10.3171C19.8504 10.1492 19.6554 9.91093 19.5403 9.63225C19.4253 9.35356 19.3955 9.04702 19.4547 8.7514C19.5138 8.45577 19.6594 8.18433 19.8728 7.97141C20.0863 7.75848 20.3581 7.61363 20.6538 7.55518C20.9496 7.49672 21.2561 7.52729 21.5345 7.64301C21.8129 7.75872 22.0507 7.9544 22.2179 8.20529C22.3851 8.45618 22.4741 8.75101 22.4738 9.0525C22.4735 9.25268 22.4338 9.45086 22.357 9.63571C22.2802 9.82056 22.1677 9.98847 22.0259 10.1298C21.8842 10.2712 21.716 10.3833 21.531 10.4597C21.346 10.5361 21.1477 10.5752 20.9475 10.575ZM15 9.285C16.1303 9.285 17.2353 9.62018 18.1751 10.2482C19.1149 10.8761 19.8474 11.7687 20.28 12.813C20.7125 13.8572 20.8257 15.0063 20.6052 16.1149C20.3847 17.2235 19.8404 18.2419 19.0411 19.0411C18.2419 19.8404 17.2235 20.3847 16.1149 20.6052C15.0063 20.8257 13.8572 20.7125 12.813 20.28C11.7687 19.8474 10.8761 19.1149 10.2482 18.1751C9.62018 17.2353 9.285 16.1303 9.285 15C9.28718 13.485 9.89 12.0326 10.9613 10.9613C12.0326 9.89 13.485 9.28718 15 9.285Z" fill="#303AAE"/>
<path d="M15 18.439C15.6801 18.439 16.345 18.2373 16.9105 17.8595C17.476 17.4816 17.9167 16.9446 18.177 16.3162C18.4373 15.6879 18.5054 14.9965 18.3727 14.3294C18.24 13.6624 17.9125 13.0496 17.4316 12.5687C16.9507 12.0878 16.3379 11.7603 15.6709 11.6276C15.0038 11.4949 14.3124 11.563 13.6841 11.8233C13.0557 12.0836 12.5187 12.5243 12.1408 13.0898C11.763 13.6553 11.5613 14.3202 11.5613 15.0003C11.5623 15.912 11.9249 16.7861 12.5696 17.4307C13.2142 18.0754 14.0883 18.438 15 18.439Z" fill="#303AAE"/>
</svg>
