<svg width="29" height="30" viewBox="0 0 29 30" fill="none" xmlns="http://www.w3.org/2000/svg">
<path fill-rule="evenodd" clip-rule="evenodd" d="M8.63103 3H20.3688C21.8881 3.00208 23.3447 3.62739 24.4191 4.73879C25.4934 5.8502 26.0979 7.35699 26.0999 8.92875V21.0713C26.0979 22.643 25.4934 24.1498 24.4191 25.2612C23.3447 26.3726 21.8881 26.9979 20.3688 27H8.63103C7.11148 26.9985 5.65458 26.3734 4.5801 25.2619C3.50562 24.1503 2.90134 22.6432 2.8999 21.0713V8.92875C2.90134 7.35681 3.50562 5.84967 4.5801 4.73814C5.65458 3.6266 7.11148 3.00149 8.63103 3ZM11.6682 17.5919C13.1088 14.9477 13.8578 13.5701 13.9153 13.4591L12.4766 10.8669C12.427 10.7495 12.3468 10.649 12.2452 10.5768C12.1436 10.5047 12.0245 10.4638 11.9017 10.4588H9.81773C9.55472 10.4588 9.40237 10.6688 9.54609 10.9299L10.956 13.4591C10.9602 13.4652 10.9619 13.4677 10.9613 13.4688C10.9608 13.4696 10.959 13.4696 10.956 13.4696L8.7434 17.5289C8.71511 17.578 8.70008 17.6343 8.6999 17.6916C8.69973 17.749 8.71441 17.8053 8.74239 17.8546C8.77038 17.904 8.81062 17.9445 8.85887 17.9719C8.90712 17.9994 8.96158 18.0127 9.01647 18.0104H11.1005C11.2227 18.0013 11.3401 17.9575 11.4402 17.8837C11.5403 17.81 11.6191 17.709 11.6682 17.5919ZM16.3492 16.4406L20.9663 7.97539H20.9707C21.0036 7.9277 21.0224 7.87096 21.0247 7.81223C21.027 7.7535 21.0127 7.69535 20.9836 7.64501C20.9545 7.59468 20.9119 7.55437 20.861 7.5291C20.8102 7.50382 20.7534 7.4947 20.6976 7.50285H18.5884C18.4676 7.50918 18.3508 7.55077 18.2515 7.6229C18.1522 7.69503 18.0742 7.79481 18.0265 7.91088C15.038 13.4103 13.4906 16.257 13.3842 16.4511L16.3492 22.0892C16.397 22.208 16.4767 22.3097 16.5788 22.3821C16.6808 22.4546 16.8008 22.4946 16.9241 22.4973H19.0139C19.0695 22.5051 19.1262 22.4957 19.1768 22.4703C19.2274 22.4449 19.2697 22.4046 19.2986 22.3543C19.3275 22.304 19.3417 22.246 19.3393 22.1875C19.337 22.1289 19.3183 22.0723 19.2855 22.0247L16.3492 16.4496V16.4406Z" fill="#303AAE"/>
</svg>
