<svg width="30" height="30" viewBox="0 0 30 30" fill="none" xmlns="http://www.w3.org/2000/svg">
<path fill-rule="evenodd" clip-rule="evenodd" d="M8.92875 3H21.0713C22.643 3.00208 24.1498 3.62739 25.2612 4.73879C26.3726 5.8502 26.9979 7.35699 27 8.92875V21.0713C26.9979 22.643 26.3726 24.1498 25.2612 25.2612C24.1498 26.3726 22.643 26.9979 21.0713 27H8.92875C7.3568 26.9985 5.84967 26.3734 4.73813 25.2619C3.6266 24.1503 3.00149 22.6432 3 21.0713V8.92875C3.00149 7.35681 3.6266 5.84967 4.73813 4.73814C5.84967 3.6266 7.3568 3.00149 8.92875 3ZM13.1077 15.7734L6.7899 7.5H11.6592L15.801 12.9239L20.9272 7.5H22.3581L16.4404 13.7612L23.1136 22.5H18.2443L13.747 16.6108L8.18087 22.5H6.75L13.1077 15.7734ZM11.1311 8.53225H8.89409L18.7722 21.4676H21.0091L11.1311 8.53225Z" fill="#303AAE"/>
</svg>
