<?xml version="1.0" encoding="UTF-8"?><svg id="Layer_1" xmlns="http://www.w3.org/2000/svg" viewBox="0 0 128 40.46"><defs><style>.cls-1{fill:#000;}.cls-1,.cls-2{stroke-width:0px;}.cls-2{fill:#da291c;}</style></defs><path class="cls-2" d="M32.92,27.15l-.32-.3,3.2-.45.95.28c.06-.15.08-.28.15-.42h-.02.02c.06-.15.08-.3.15-.45l-1.21.17-4.75-1.36,6.37-.3c.02-.15.06-.3.08-.45l-6.68.32,3.97-1.51,2.8.59.02-.21-2.48-.51.42-.15,2.1.36.06-.45-1.36-.23,1.42-.53c.02-.21.02-.42.02-.59l-.36-.15h.38v-.45l-1.72-.06-1.04-.36,1.42-.7,1.29.32c0-.15,0-.3-.02-.45l-.7-.17.66-.32c0-.08-.02-.15-.02-.23l-.95.47-3.37-.85,3.08-1.42,1-.13-.02-.21-.32.02.3-.15c-.06-.23-.13-.51-.17-.74l-3.84-.02,3.48-1.19c-.06-.15-.08-.28-.15-.42l-4.67,1.59-5.88-.02,2.5-1.49,7.04-2.33c-.02-.06-.06-.13-.13-.17l-6.07,2.02,5.39-3.16c-.08-.13-.15-.23-.23-.36l-.17.13-8.53,4.03,7-6.37c-.08-.13-.21-.21-.3-.32l-.3.28-5.69,3.25.51-.91,4.12-3.93-.17-.15-3.61,3.46,2.23-4.14.17-.28-.36-.23-2.97,4.46,1.95-5.11-.38-.21-.28.66-5.05,6.66,1.95-8.72-.21-.06-2.08,9.21-.66.85,1.66-10.35-.42-.08-1.78,11.16-.21.28-.06-.21-.21-6.47,1.42-4.94-.21-.02-1.25,4.29-.15-4.43-.21-.02.15,5.16-.89,3.06-1.78-4.73.89-3.52h-.45l-.7,2.78-1-2.65-.21.02,1.12,2.99-1.25,4.94-2.1-7.51-.21.06,2.27,7.85-.51,2.04-2.08-9.78-.38.13,2.12,10.08-1.51-1.27-.7-1.8-1.36-6.47-.21.08,1.06,5.2-1.89-4.82-.38.21,2.78,7.07-1.06-.89-3.14-5.33-.36.23,2.53,4.27-3.88-3.25-.17.15,4.35,3.69,1.57,2.65-3.2-1.21-1.42-1.51-1.53-3.52c-.13.08-.23.21-.36.3l1,2.31-1.59-1.72-.32.32,2.55,3.23-4.05-1.44c-.08.13-.17.23-.28.36l2.1,1.89-2.91-.74-.23.38,3.78.95,3.78,3.44-4.52-.04-3.44-3.59-.13.21,3.25,3.37h-.55l-3.35-1.89c-.06.15-.13.28-.15.42l2.61,1.44H1.03c-.06.21-.13.38-.15.59l6.51,1.34.08.08-6.37-1.1-.3-.08c-.02.15-.06.3-.08.45l.3.06,8.04,2.31.68.7-7.11-.23-2.23-.79-.02.45.85.3-.85-.02-.02.45,2.19.06,1.95.7-4.18.53v.21l4.6-.59,1.25.45-5.69,1.87c0,.06.02.15.02.21l5.98-1.97,1.36.47-6.77,3.97c.06.23.15.47.23.74l.81-.28,5.58-.28-1.25.74-5.11-.15.08.21,4.67.15-3.69,2.19.21.38,4.33-2.55,2.27.06-3.48,3.31-2.4.32c.08.15.17.28.28.42l1.59-.21-.32.3-.91.45c.13.15.21.3.32.45l.21-.21,2.61-1.21.28-.02-2.46,2.23c.08.13.17.21.3.32l2.93-2.63.17-.02-2.31,3.01-.32.13.32.32,4.86-1.82-.06.21-4.27,2.12.17.15,4.03-2.04-.28,1.12-1.66,2.5.36.23.98-1.49-.45,1.8.38.21.76-3.1,1.36-2.04,1.49-.74-1.95,6.71.21.08,2.02-6.92.28-.15,2.12-.83-4.27,7.94.21.08,4.37-8.17.06-.02.83,1.89-2.69,7.04c.15.02.3.06.42.08l2.46-6.43.06.3-1.42,6.32.21.02,1.34-5.84.15.66-.83,5.26.45.02.66-4.12.85,4.14h.21l-.98-4.75.08-.59,2.31,5.3c.21-.02.45-.02.66-.06l-1.93-9.15,1.93,2.02.21,7.11.21-.02-.21-6.77,2.48,6.28.42-.13-.51-1.29-.98-3.46,3.76,3.9.21-.08-4.07-4.27-1.29-4.6.55-.08,1.49,1.89,3.97,6.75.38-.21-2.33-3.99,2.86,3.67.38-.23-4.9-6.22-1.04-1.74,1.49-.21,2.91,2.63,1.97,5.3.17-.13-1.82-4.88,3.73,3.37.17-.15h0l-4.48-4.75-.36-.91,2.61.95,4.37,2.46c.08-.13.17-.23.28-.36l-2.16-1.21,2.42.89c.08-.13.17-.23.28-.36l-4.97-1.78-2.48-1.4,2.4-.32,3.29.08,2.57,2.16.13-.21-2.33-1.95,3.23.08.08-.21-3.67-.17ZM7.38,8.6l.51.53.08.23-.59-.76ZM5.51,30.63l.06-.06h.08l-.15.06ZM34.73,26.15l-2.61.36-1.97-1.66,4.58,1.29ZM29.59,24.22l-.23-.06-.95-.81,2.78-1.42,2.8.59-4.39,1.7ZM25.03,26.42l.7-.28.32.83h-.02l-1-.55ZM25.8,27.36l-.47.06-.23-.23h.38l.32.17ZM22.85,26.17l.45-.23.7.38-.68.28-.47-.42ZM23.06,26.66l-.66-.23.28-.13.38.36ZM24.35,26.68l.23.28-.76-.02-.06-.02.59-.23ZM24.52,26.15l-.76-.45,1.53-.76.3.81-1.06.4ZM24.9,23.35l1.95.55-1.1.55-.45.02-.4-1.12ZM25.09,26.95h-.17l-.21-.21.38.21ZM25.5,24.88l2.63-.13-2.33.89-.3-.76ZM26.3,24.41l.85-.45,1.21.36-2.06.08ZM27.75,23.69l.45-.23.66.53-1.1-.3ZM30.87,21.88l-2.63,1.34-2.1-1.78.76-.36,3.97.81ZM27,20.46h.15-.15ZM29.47,17.49l2.65.66-.91.45-2.72-.98.98-.13ZM28.04,17.45l-.32-.13.47-.15.7.17-.85.11ZM31.55,18.93l3.06,1.1-.53.28-5.09-.15,2.57-1.23ZM33.26,20.72l-1.29.66-4.12-.7.23-.13,5.18.17ZM31.31,21.69l-.13.06-2.57-.53,2.69.47ZM34.41,22.39l-2.86-.59.15-.08,3.1.53-.38.15ZM36.77,20.8l.91.32-2.16.83-3.25-.55,1.4-.7,3.1.11ZM35.45,20.31l-.95-.02.36-.17.59.19ZM36.23,19.17l-1.4.7-3.06-1.1,1-.47,3.46.87ZM32.78,17.87l-2.1-.53,4.43-.55-2.33,1.08ZM32.16,15.81l4.88.02-1.29.62-5.64.7-1.12-.3,3.18-1.04ZM30.82,15.81l-2.65.89-3.01-.74.32-.17,5.35.02ZM27.41,17.45l.17.06-.62.08.45-.15ZM25.09,16.39l2.33.59-.36.13-1.97-.72ZM25.33,15.35h-.81l.17-.15,2.08-.68-1.44.83ZM24.63,15.77l-.06.02-.17-.02h.23ZM26.18,11.42l-1.57,2.93,1-2.61.57-.32ZM25.73,11.42l.06-.13.95-.89-.36.66-.66.36ZM32.39,11.19l-4.75,2.8-2.55.83.36-.32,6.94-3.31ZM31.69,8.28l-6.96,6.28,1.78-3.35,5.18-2.93ZM28.49,7.09l-1.44,2.72-.98.89,2.42-3.61ZM22.78,11.59l4.88-6.39-2.16,5.58-.83,1.21-2.31,1.36.42-1.76ZM24.08,12.63l-1.95,1.87.17-.85,1.78-1.02ZM21.87,12.8l.62-.81-.32,1.49-.45.28.15-.95ZM21.3,13.54v.08l-.02-.06.02-.02ZM21.19,14.05l-.06.02v-.23l.06.21ZM20.72,7.37l.15,5.18-.91-2.48.76-2.69ZM16.56,10.89l.76,2.76-.85-.3-.45-.38.53-2.08ZM17.43,13.91l.02.15-.17-.02-.32-.28.47.15ZM16.84,13.91l-.62-.15-.06-.3.28.08.4.36ZM15.57,12.84l.02.17-1.04-.38-.38-1,1.4,1.21ZM14.85,13.37l-.17-.51.89.32-.08.32-.64-.13ZM15.36,13.97l-.13.45-.21-.53.34.08ZM14.23,13.99l.74,1.27h-.47l-.28-1.27ZM14.36,15.73h0ZM11.92,13.1l2.02.51.32,1.63h-.32l-2.02-2.14ZM13.64,15.26h-1.04l-1.93-2.46.85.21,2.12,2.25ZM14.32,13.29h-.02l-.32-.59v-.02l.15.06.19.55ZM14,12.46l-.13-.02-.13-.47.25.49ZM12.55,10.3l.83.7.23,1.1-1.06-1.8ZM13.3,12.42l.42.68-2.33-.59-1.12-1.21,3.03,1.12ZM10.98,12.42l-.74-.17-1-1.27.55.21,1.19,1.23ZM9.48,10.83l-.45-.15-.28-.59.72.74ZM6.46,11.3l-2.42-2.19,4.43,1.59.17.23.45,1.04-2.63-.68ZM7.14,11.89l2.23.55,1.04,2.4-3.27-2.95ZM9.86,12.61l.13.02,2.04,2.63h-1.04l-1.12-2.65ZM6.02,15.62l.23.28-.47-.28h.23ZM1.22,15.58l3.69.02,2.04,1.15-5.73-1.17ZM6.89,16.26l-.59-.62,4.37.02.89,2.08-3.25-.68-1.42-.81ZM15.48,26.68l.02.06h-.06l.04-.06ZM15.48,25.55v-.06l.15.15-.06.13-.08-.21ZM15.59,26.95l.74,1.72-1.87.28.38-1.34.45-.68.3.02ZM15.8,26.3l.32-.15.53.55v.06l-.66-.02-.19-.45ZM13.38,29.06l-1.42.17.32-1.34,2.19-1.04h.32l-1.4,2.21ZM14.46,28.19l-.21.74-.3.06.51-.81ZM9.97,28.53l1.87-1.68h.28l-.21.76-1.93.91ZM11.77,28.16l-.3,1.15-2.5.36.21-.3,2.59-1.21ZM11.83,25.53l-.81,1.06-1.29-.02,1-.98,1.1-.06ZM9.48,25.24l3.16-1.87.15.06-1.82,1.74-1.49.06ZM12.55,26.85l.95.02-1.06.51.11-.53ZM12.47,25.09l.13-.15-.02.15h-.11ZM12.36,25.77l-.91.85h-.15l.83-1.06h.32l-.08.21ZM12.19,26.51v.08h-.08l.08-.08ZM11.15,26.81h.06l-.23.21.17-.21ZM15.06,26.15l-1.1.53-1.34-.02.15-.66.55-.53,1.57-.06.21.47-.04.28ZM12.72,24.37l-.53.7-.95.02,1.68-1.63-.19.91ZM12.58,22.86l-.59-.21.59-.21.28.28-.28.15ZM11.3,22.41l-1.42-.51,1.44-.7.85.89-.87.32ZM10.56,20.36l.66.68-1.59.76-.98-.36,1.91-1.08ZM10.48,19.97h.3l-.17.13-.13-.13ZM10.75,20.27l.45-.28,1.42.02.13.3-1.29.62-.7-.66ZM11.39,19.55l.15-.02h.06-.02l-.19.02ZM12.02,19.1l-1.89-1.06,1.74.3.3.7-.15.06ZM9.65,17.53l-.66-.08-.06-.02.72.11ZM4.92,17.19l3.08.53.47.47-3.54-1ZM8.88,18.32l-.53-.53.51.08,1.66.91-1.63-.47ZM9.48,18.93l1.68.47-.42.15-.68-.02-.57-.59ZM3.94,19.76l4.65.15-3.14.42-1.51-.57ZM5.89,20.46l3.31-.42-2.31.79-1-.36ZM7.19,20.95l2.95-.98h0l.23.23-2.02,1.15-1.17-.4ZM1.78,25.6h-.32l6.71-3.84.91.32-7.3,3.52ZM9.39,22.18l1.29.47-7.81,2.63,6.51-3.1ZM3.64,25.49l7.68-2.61.76.28-3.54,2.1-4.9.23ZM7.31,26.51l1.36-.81,1.78-.08-.98.95-2.16-.06ZM7.02,29.9l-.89.13,3.44-3.27,1.36.02-.81,1-1.44,1.34-1.66.79ZM6.4,33.07l2.25-2.93,2.78-.38-.42,1.53-4.6,1.78ZM11.22,32.32l.06-.3.17-.08-.23.38ZM11.73,31.6l-.36.17.02-.13.38-.15-.04.11ZM12.19,30.86l-.68.28.36-1.42,1.21-.15-.89,1.29ZM13.91,30.2l-1,.38.76-1.12.51-.06-.28.81ZM16.03,29.39l-1.87.7.21-.74,2.16-.3.02.06-.53.28ZM17.01,28.57l-.21.02-.7-1.66h.62l.3,1.63h0ZM18.41,28.19l-.59-.62.32-.59h.45l.21,1-.38.21ZM18.79,28.25h0l-.02.08-.21.02.23-.11ZM17.65,27.42l-.42-.45h.66l-.23.45ZM17.52,27.59l-.32.62-.28-1.25.59.64ZM17.16,29.44h0l.04.17-.04-.17ZM17.69,27.78l.51.53-.28.15-.66.08.42-.76ZM17.82,30.9l-.15-.32-.28-1.25,1.19-.45-.76,2.02ZM18.05,31.5h0l.02-.13-.02.13ZM18.18,33.04l-.08-.38.13.23-.04.15ZM18.33,32.13l-.13-.28.42-1.87.06-.17-.36,2.31ZM20.81,37.8l-2.16-4.94.47-2.99,1.7,7.94ZM19.01,27h.08l-.06.21-.02-.21ZM19.47,29.31l-.13-.62,1-.15,1.12,2.8-1.99-2.04ZM19.98,27.66l.08.21-.66.23.02-.21.55-.23ZM19.54,27.63l.21-.55.15.38-.36.17ZM20.81,28.04l.53-.21.02.13h0l-.55.08ZM21.36,28.4l.06,1.74-.66-1.66.59-.08ZM20.47,27.72l-.08-.28.74-.38.08.36-.74.3ZM20.28,27.25l-.08-.21h.45l-.36.21ZM21.55,26.57l.06.02-.06.02v-.04ZM23.31,34.91l-.85-2.19.36.36.49,1.82ZM22.68,32.66l-.45-.45-.59-1.44-.06-1.89,1.1,3.78ZM21.57,27.95h0v-.17l.21-.08.17.21-.38.04ZM21.66,26.81l.08-.02.06.13h-.08l-.06-.11ZM21.93,27.15l-.06-.06h.06v.06h0ZM22.12,26.32l-.21-.08-.15-.28c-.32.15-.68.28-1.04.38l.28.32.06.17-.91-.02-.13-.32c-.28.02-.53.06-.83.06l-.06.23h-.17l-.06-.23c-.15,0-.3,0-.45-.02l.06.28h-.28l.15-.28-.23-.02-.15.3-.98-.02-.15-.17-.08-.47-.23-.13.06.3-.3-.21.15-.06c-.68-.32-1.27-.74-1.8-1.27l.13.28-.89.02.55-.51c-.08-.13-.17-.21-.3-.32l-.98.89h-.17l.28-1,.28-.36.3.13.08.08c-.3-.42-.55-.89-.74-1.36l-.17.13-.23-.23.32-.13c-.06-.15-.08-.28-.13-.42l-.53.17-.89-.91,1.21-.55v-.32c0-.3.02-.55.06-.85h-.02l-.13-.23.02-.02.15-.06c.02-.13.06-.23.06-.32l-.32.17h-.02l-.21-.51.62.13c.06-.17.08-.36.17-.51l-1.04-.21-.81-1.87,1.93,1.74c.02-.06.06-.15.08-.21l-2.1-1.93h1.1l1.19,1.51c.06-.15.15-.28.23-.38l-.85-1.12h1.12l.32.36c.06-.08.15-.15.23-.23l-.02-.13h.13c.28-.23.53-.47.83-.68l.23-.95h.06l.15.68c.13-.08.28-.15.42-.21l-.06-.36.55.15c.3-.13.55-.21.85-.28l-.02-.08.17.06c.15-.02.3-.06.45-.06l-.74-.23-.89-3.29,1.27-5.09,1.78,4.71-1.12,3.88h.23l1-3.52,1.06,2.8v.47l-.3.38.23.06.08-.13v.15c.23.06.45.15.68.23l.06-.42.42-.23-.17.76c.13.06.21.13.32.17l1.93-1.82-1.42,2.12c.13.08.23.17.36.28l1.74-2.63-.91,2.38-.68.32h-.08c.42.36.81.74,1.12,1.19l.21-.13,2.25.85-1.78.59c.06.15.13.28.15.42l.81-.28,2.12-.28,2.93,1.04-2.93,1.4-2.57-.08v.23c0,.17,0,.36-.02.53l.76.15-.42.21-.36-.3c0,.08-.02.17-.02.28l.17.15-.23.08c-.02.17-.06.36-.13.53l.68-.32,2.1,1.78-.55.3-2.57-.74c-.06.15-.13.28-.21.38l.45,1.21-1.4.06c-.15.15-.3.32-.47.45l1.57-.06-1.25.62-.45-.47-.17.15.08.08-.13-.06c-.13.08-.28.17-.38.28l.51.3-.38.21-.36-.3-.21.13.36.32-.34.15ZM22.32,26.89l-.02-.06.17.06h-.15ZM22.85,27.78l-.23-.42.55-.21.74.28.21.17-1.27.19ZM24.5,27.15h.32l.15.17-.47-.17ZM29.7,32.37l-2.08-1.87-.21-.55,2.29,2.42ZM27.05,29.52l.23.62-2.46-2.23.42-.06.42.15,1.38,1.53ZM26.6,28.4l.23.62-.76-.81.53.19ZM26.13,27.78l.21-.02.02.13-.23-.11ZM26.43,27.21h.45l-.32.02-.13-.02ZM27.2,28.12l-.53-.17-.06-.15.59.32ZM28.19,27.04l-1.89-.06-.32-.89,3.59-1.36h.15l2.19,1.82-3.71.49ZM30.91,27.12l1.4-.21.28.23-1.68-.02Z"/><path class="cls-1" d="M44.62,10.7h2.02l6.45,7v-7h1.8v9.7h-1.74l-6.75-7.24v7.26h-1.8l.02-9.72Z"/><path class="cls-1" d="M68.02,16.24c0,3.1-1.97,4.41-5.16,4.41s-5.16-1.27-5.16-4.41v-5.54h1.89v5.39c0,1.59.55,2.91,3.25,2.91s3.25-1.29,3.25-2.91v-5.39h1.89v5.54h.04Z"/><path class="cls-1" d="M81.01,16.94c-.17,1.06-.95,3.69-5.41,3.69-3.08,0-5.47-1.72-5.47-5.24,0-2.84,1.78-4.94,5.62-4.94,4.33,0,4.97,2.8,5.11,3.35h-1.89c-.13-.32-.85-1.72-3.1-1.72-2.65,0-3.78,1.51-3.78,3.52,0,2.23,1.63,3.4,3.69,3.4,2.23,0,3.2-1.34,3.37-2.08h1.85v.02h0Z"/><path class="cls-1" d="M83.21,10.7h1.89v8.02h7v1.68h-8.91v-9.7h.02Z"/><path class="cls-1" d="M94.14,10.7h8.7v1.63h-6.81v2.25h5.86v1.63h-5.86v2.55h6.96v1.63h-8.85v-9.7h0Z"/><path class="cls-1" d="M115.32,16.24c0,3.1-1.97,4.41-5.16,4.41s-5.16-1.27-5.16-4.41v-5.54h1.89v5.39c0,1.59.55,2.91,3.25,2.91s3.25-1.29,3.25-2.91v-5.39h1.89v5.54h.04Z"/><path class="cls-1" d="M125.67,13.67c-.3-.85-1.1-1.63-3.4-1.63-1.27,0-2.57.32-2.57,1.21,0,.42.23.85,2.19,1.1l2.31.36c2.16.32,3.46,1.19,3.46,2.8,0,2.31-2.19,3.14-4.75,3.14-4.18,0-5.18-2.04-5.39-2.78l1.82-.55c.36.7,1.06,1.74,3.63,1.74,1.53,0,2.84-.51,2.84-1.34,0-.62-.7-1.04-2.1-1.21l-2.31-.32c-2.25-.3-3.48-1.27-3.48-2.76,0-2.91,3.78-2.91,4.52-2.91,4.18,0,4.88,1.93,5.11,2.61l-1.89.53Z"/><path class="cls-1" d="M45.66,25.15h3.69c1.51,0,2.63.21,2.63,1.49s-1.12,1.49-2.63,1.49h-3.69v-2.97ZM44.62,32.83h1.04v-3.82h3.4l2.78,3.82h1.29l-2.84-3.84c1.04-.06,2.72-.55,2.72-2.38,0-2.1-2.02-2.4-3.4-2.4h-5.01l.02,8.61h0Z"/><path class="cls-1" d="M55.61,24.2h7.68v.95h-6.66v2.76h5.56v.91h-5.56v3.1h6.77v.91h-7.83v-8.64h.04Z"/><path class="cls-1" d="M65.43,30.35c.51.66,1.34,1.74,3.9,1.74,1.34,0,3.14-.38,3.14-1.72,0-2.63-7.51-.32-7.51-3.82,0-1.82,1.68-2.57,4.05-2.57s3.67.95,4.27,1.78l-.76.62c-.36-.42-1.19-1.51-3.54-1.51-1.74,0-2.95.45-2.95,1.53,0,2.61,7.51.13,7.51,3.99,0,1.44-1.4,2.65-4.33,2.65s-3.88-1.19-4.6-1.97l.83-.72Z"/><path class="cls-1" d="M75.68,24.2h7.68v.95h-6.66v2.76h5.56v.91h-5.56v3.1h6.81v.91h-7.83v-8.64Z"/><path class="cls-1" d="M87.2,29.67l2.31-4.65,2.31,4.65h-4.63ZM84.47,32.83h1.15l1.12-2.25h5.56l1.12,2.25h1.19l-4.43-8.64h-1.27l-4.43,8.64Z"/><path class="cls-1" d="M97.32,25.15h3.69c1.51,0,2.63.21,2.63,1.49s-1.12,1.49-2.63,1.49h-3.69v-2.97ZM96.28,32.83h1.04v-3.82h3.4l2.78,3.82h1.29l-2.84-3.84c1.04-.06,2.72-.55,2.72-2.38,0-2.1-2.02-2.4-3.4-2.4h-5.01l.02,8.61h0Z"/><path class="cls-1" d="M116.17,30.52c-.91,1.8-2.5,2.5-4.6,2.5-3.35,0-4.9-2.02-4.9-4.5,0-2.95,2.02-4.56,4.9-4.56,1.87,0,3.73.7,4.5,2.46l-.89.42c-.59-1.42-1.95-2.02-3.59-2.02-2.48,0-3.84,1.34-3.84,3.78,0,1.97,1.34,3.46,3.97,3.46,1.72,0,2.91-.7,3.61-2.04l.85.49Z"/><path class="cls-1" d="M118.25,24.2h1.04v3.67h6.81v-3.67h1.04v8.64h-1.04v-4.05h-6.81v4.05h-1.04v-8.64Z"/></svg>